<svg width="32" height="32" viewBox="0 0 32 32" fill="none" xmlns="http://www.w3.org/2000/svg">
<path fill-rule="evenodd" clip-rule="evenodd" d="M6.31499 0.673909C6.49605 0.73586 6.77534 0.88044 6.9357 0.983749C7.91837 1.63449 10.6545 5.13077 11.5494 6.87639C12.0614 7.8731 12.232 8.61162 12.0718 9.15906C11.9062 9.74781 11.6321 10.0577 10.4063 11.0441C9.91489 11.4417 9.45454 11.8497 9.38219 11.9582C9.19597 12.2268 9.04592 12.7535 9.04592 13.1254C9.05117 13.9878 9.60974 15.5527 10.3442 16.756C10.9131 17.6907 11.932 18.8888 12.9407 19.8082C14.1251 20.8927 15.1699 21.6312 16.3492 22.2148C17.8646 22.9688 18.7905 23.1599 19.4681 22.8449C19.6388 22.7674 19.8198 22.6641 19.8767 22.6177C19.9284 22.5712 20.3267 22.0857 20.7612 21.5486C21.599 20.495 21.7904 20.3246 22.3645 20.1284C23.0939 19.8805 23.8387 19.9476 24.5886 20.3298C25.1576 20.6242 26.3989 21.3937 27.2006 21.9514C28.2557 22.6899 30.5108 24.5285 30.8161 24.8952C31.3539 25.5562 31.4471 26.4031 31.085 27.338C30.7022 28.3243 29.2126 30.1732 28.173 30.9634C27.2316 31.6761 26.5644 31.9497 25.6852 31.9911C24.9611 32.0272 24.6611 31.9653 23.7352 31.5831C16.4734 28.5929 10.6752 24.1309 6.07187 18.0006C3.66681 14.7987 1.83579 11.4779 0.584057 8.03324C-0.14518 6.02429 -0.181361 5.15148 0.418547 4.12376C0.677215 3.68997 1.7789 2.61574 2.58059 2.01669C3.91508 1.02509 4.53054 0.658396 5.02192 0.555136C5.3581 0.482817 5.94254 0.53962 6.31499 0.673909V0.673909Z" fill="#7F4DA0"/>
</svg>
