<svg width="30" height="30" viewBox="0 0 30 30" fill="none" xmlns="http://www.w3.org/2000/svg">
<rect y="0.9375" width="30" height="28.125" rx="4" fill="white"/>
<path fill-rule="evenodd" clip-rule="evenodd" d="M7.37024 29.51H7.37042H7.37061C7.94518 29.5039 8.51952 29.4978 9.09318 29.4978C9.09253 29.4931 9.0918 29.4885 9.091 29.484L9.09165 29.4876L9.09321 29.4975C9.22404 29.4975 9.35487 29.5041 9.4857 29.5172H18.9382C19.7232 29.5172 20.5082 29.5186 21.2932 29.5201H21.2939C22.8636 29.523 24.4334 29.5259 26.0031 29.5172H26.0358C28.2206 29.4975 29.9738 27.7182 29.9607 25.5334V21.7066C29.9607 21.6828 29.9624 21.6534 29.9641 21.6225C29.9696 21.5264 29.9759 21.4165 29.9345 21.4188C29.8168 21.4253 29.6311 21.4674 29.5657 21.5328C29.064 21.8673 28.5775 22.2325 28.091 22.5978C27.118 23.3283 26.1451 24.0589 25.0504 24.543C20.7908 25.9799 17.0234 26.048 13.0247 25.082C12.8058 25.0025 12.7017 25.0114 12.5167 25.0272H12.5167H12.5167C12.3975 25.0374 12.2448 25.0505 12.0064 25.0446C11.9774 25.0457 11.9472 25.0467 11.9159 25.0477C11.5214 25.0599 10.9487 25.0777 10.2641 25.4941C8.66146 25.9848 6.4878 26.0481 5.36453 25.8801C5.36929 25.8908 5.37232 25.9001 5.37468 25.9088C5.37118 25.9016 5.3678 25.8943 5.36451 25.8869C5.3489 25.8693 5.32919 25.8538 5.3101 25.8387C5.24918 25.7907 5.1945 25.7476 5.2991 25.6579C5.32962 25.6383 5.36015 25.618 5.39068 25.5976C5.45173 25.5569 5.51278 25.5162 5.57384 25.4813C6.43078 24.9253 7.23538 24.3169 7.76525 23.4207C8.48558 22.5474 8.15168 22.2068 7.51518 21.5575L7.49119 21.5331C4.39014 18.3687 3.47765 15.0111 3.80109 10.4947C4.18704 8.01542 5.32526 5.88288 6.96718 4.02509C7.96149 2.89994 9.14551 1.99067 10.4407 1.23185C10.4594 1.21996 10.4812 1.21027 10.5034 1.20038C10.5668 1.1722 10.6338 1.14239 10.6435 1.05523C10.6512 0.986393 10.5406 0.963654 10.5014 0.963654C9.76317 0.963654 9.03451 0.957055 8.30924 0.950486C6.86858 0.937438 5.4413 0.924511 3.97934 0.96367C1.87952 1.02254 -0.0342034 2.46873 0.00046387 5.04557C0.00918636 9.59872 0.00627824 14.149 0.00337075 18.6982C0.00191723 20.9725 0.00046387 23.2465 0.00046387 25.5206C0.00046387 27.6335 1.61622 29.4062 3.72913 29.4913C4.94118 29.5357 6.15625 29.5228 7.37024 29.51ZM5.44756 26.0299L5.46263 26.0504C5.57226 26.1477 5.68105 26.2459 5.78922 26.3448C5.68429 26.2445 5.57591 26.1441 5.46266 26.0436L5.44756 26.0299ZM8.79603 29.1721C8.75966 29.1481 8.72466 29.1224 8.69417 29.092C8.69137 29.0915 8.68848 29.0909 8.68551 29.0902L8.69414 29.0988C8.72464 29.1264 8.75965 29.1498 8.79603 29.1721ZM10.1137 14.8585C10.4477 14.8585 10.775 14.8578 11.0975 14.857C11.7289 14.8556 12.3422 14.8542 12.9527 14.8585C13.4695 14.865 13.7508 15.0809 13.8031 15.493C13.862 16.0098 13.5611 16.3565 12.9985 16.3631C12.2039 16.3729 11.413 16.3716 10.6203 16.3704C10.3557 16.37 10.091 16.3696 9.82588 16.3696C9.73781 16.3696 9.65028 16.3707 9.56298 16.3717H9.56296H9.56291C9.34546 16.3744 9.12943 16.3771 8.91007 16.3631C8.53066 16.3434 8.1578 16.2649 7.97464 15.8724C7.79147 15.4799 7.9223 15.1267 8.17088 14.8062C9.17827 13.524 10.1922 12.2354 11.2061 10.9532L11.2062 10.9532L11.2062 10.9532C11.265 10.8747 11.3239 10.7962 11.3828 10.7243C11.3346 10.6424 11.2722 10.6492 11.2113 10.6558C11.1895 10.6582 11.1679 10.6606 11.1473 10.6589C10.794 10.6556 10.4392 10.6556 10.0843 10.6556C9.72942 10.6556 9.37453 10.6556 9.02128 10.6523C8.85774 10.6523 8.6942 10.6327 8.53721 10.6C8.16434 10.5149 7.93539 10.1421 8.02043 9.77575C8.0793 9.52718 8.27555 9.32439 8.52412 9.26552C8.68112 9.22627 8.84466 9.20664 9.00819 9.20664C10.1726 9.2001 11.3435 9.2001 12.5079 9.20664C12.7172 9.2001 12.92 9.22627 13.1228 9.2786C13.5676 9.42905 13.7573 9.84117 13.5807 10.2729C13.4237 10.6458 13.1751 10.9663 12.9266 11.2868L12.9266 11.2868C12.0696 12.3793 11.2127 13.4652 10.3557 14.5445C10.2838 14.6296 10.2184 14.7146 10.1137 14.8585ZM17.7019 11.4173C17.8589 11.2145 18.0224 11.0248 18.2906 10.9724C18.8074 10.8678 19.2915 11.2014 19.298 11.7247C19.3177 13.033 19.3111 14.3413 19.298 15.6497C19.298 15.9898 19.0756 16.2907 18.7551 16.3889C18.428 16.5131 18.0551 16.415 17.8393 16.1337C17.7281 15.9964 17.6823 15.9702 17.5253 16.0945C16.93 16.5786 16.2562 16.6636 15.5301 16.4281C14.3657 16.0487 13.8882 15.1394 13.7574 14.0339C13.62 12.8368 14.019 11.8163 15.0918 11.1883C15.9815 10.6584 16.8842 10.7042 17.7019 11.4173ZM16.5964 12.3657C16.695 12.3699 16.7915 12.3882 16.8833 12.4196C17.0803 12.4833 17.2555 12.6092 17.3814 12.7844C17.7477 13.2816 17.7477 14.0993 17.3814 14.5965C17.316 14.6815 17.244 14.7535 17.1655 14.8123C16.9647 14.9609 16.7292 15.0296 16.4974 15.0244C16.279 15.0211 16.0593 14.952 15.8703 14.8122C15.7918 14.7533 15.7198 14.6814 15.6544 14.5963C15.4909 14.3674 15.3993 14.0926 15.3862 13.8048C15.3796 12.8825 15.8833 12.3264 16.5964 12.3657ZM22.2352 13.8442C22.1829 12.163 23.2884 10.907 24.8584 10.8612C26.5264 10.8089 27.7432 11.9275 27.7955 13.5629C27.8478 15.2179 26.8339 16.3889 25.2705 16.5458C23.5631 16.7159 22.209 15.4796 22.2352 13.8442ZM23.8771 13.6879C23.8642 14.0147 23.9623 14.335 24.1584 14.603L24.1604 14.6055C24.2122 14.6764 24.2705 14.7409 24.3416 14.7926C24.4373 14.868 24.5422 14.9246 24.6516 14.9629C24.8845 15.0454 25.1426 15.046 25.3795 14.9577C25.5598 14.8922 25.7245 14.7779 25.8516 14.6173L25.8527 14.6161L25.8623 14.6033C26.0451 14.3599 26.1367 14.0331 26.138 13.7053C26.1396 13.4156 26.0702 13.1256 25.9304 12.8909C25.9084 12.8539 25.8847 12.8183 25.8592 12.7843C25.676 12.5358 25.3882 12.3788 25.0808 12.3722C25.0297 12.3694 24.9797 12.3696 24.931 12.3727C24.3221 12.411 23.9006 12.9008 23.8781 13.6256C23.8774 13.6459 23.8771 13.6664 23.8771 13.6871L23.8771 13.6879ZM21.6595 12.5424C21.6595 12.8804 21.6603 13.2184 21.661 13.5563C21.6624 14.2323 21.6639 14.9083 21.6595 15.5842C21.6661 16.0487 21.2998 16.4346 20.8353 16.4477C20.7568 16.4477 20.6718 16.4412 20.5933 16.4216C20.2662 16.3365 20.0176 15.9898 20.0176 15.5777V10.3771C20.0176 10.2744 20.0169 10.1724 20.0162 10.0707C20.0147 9.86788 20.0133 9.66605 20.0176 9.46132C20.0242 8.95762 20.3447 8.63054 20.8288 8.63054C21.3259 8.624 21.6595 8.95108 21.6595 9.47441C21.6639 10.1548 21.6624 10.838 21.661 11.5203V11.521C21.6603 11.8618 21.6595 12.2025 21.6595 12.5424Z" fill="#0068FF"/>
</svg>
